#!OML:ASF H:\Terrain\Patient Classification 1\Walking\liu\liu.ASF
:FULLY-SPECIFIED
:DEGREES
315
root 9.91764 16.5417 7.53089 7.78972 8.47527 5.29745
lowerback -8.5015 -4.90182 -7.23811
upperback -0.975869 -5.92127 1.73681
thorax 4.65834 -3.08874 5.09947
lowerneck -18.6254 -5.0878 -12.6343
upperneck 21.7769 -6.4779 12.0973
head 10.9365 -2.61891 5.56427
rclavicle -5.24046e-014 -1.74931e-014
rhumerus -50.163 4.97536 -82.5894
rradius 31.4492
rwrist -17.042
rhand -27.4603 -24.3114
rfingers 7.12502
rthumb -0.864656 -54.2894
lclavicle -5.24046e-014 -1.74931e-014
lhumerus -16.1739 -39.5183 94.1462
lradius 40.7983
lwrist 13.4451
lhand -8.13686 -22.7942
lfingers 7.12502
lthumb 17.7771 6.41327
rfemur -42.7307 6.5712 7.32363
rtibia 25.8743
rfoot -24.6266 -12.3492
rtoes -21.6588
lfemur 18.2049 3.74928 -26.6574
ltibia -6.99722e-014
lfoot -13.3777 -1.44631
ltoes -6.16608
316
root 9.89216 16.5166 7.69573 7.87685 8.62195 5.24268
lowerback -8.35149 -4.95431 -7.27541
upperback -1.09267 -6.00262 1.75886
thorax 4.46951 -3.12099 5.14807
lowerneck -18.3012 -4.98713 -13.1104
upperneck 21.2524 -6.42158 13.0102
head 10.726 -2.54016 5.98642
rclavicle 1.66482e-015 4.77083e-015
rhumerus -50.1361 4.74076 -82.4393
rradius 31.0575
rwrist -17.0811
rhand -28.065 -23.1231
rfingers 7.12502
rthumb -1.44868 -53.098
lclavicle 1.66482e-015 4.77083e-015
lhumerus -16.7546 -39.3885 94.5868
lradius 41.0885
lwrist 13.0588
lhand -7.13132 -22.8809
lfingers 7.12502
lthumb 18.7445 6.236
rfemur -42.9527 5.74683 8.14662
rtibia 26.8046
rfoot -22.4929 -11.15
rtoes -18.1883
lfemur 18.708 3.80056 -26.1733
ltibia -2.22639e-014
lfoot -12.733 -1.90488
ltoes -3.42678
317
root 9.86588 16.4954 7.86658 7.89383 8.9152 5.27987
lowerback -8.32741 -5.01785 -7.42845
upperback -1.02598 -6.07409 1.76433
thorax 4.55371 -3.16407 5.22662
lowerneck -18.0873 -4.98461 -13.7611
upperneck 20.457 -6.47731 14.198
head 10.4767 -2.49538 6.51512
rclavicle 3.69739e-014 -2.70347e-014
rhumerus -49.9521 4.57863 -82.3954
rradius 30.5571
rwrist -16.6368
rhand -29.5462 -20.9851
rfingers 7.12502
rthumb -2.87923 -50.9454
lclavicle 3.69739e-014 -2.70347e-014
lhumerus -17.0611 -39.6467 94.8836
lradius 41.3644
lwrist 12.9462
lhand -6.08707 -23.3177
lfingers 7.12502
lthumb 19.7487 5.69912
rfemur -42.9493 4.75721 8.9287
rtibia 27.7782
rfoot -22.518 -9.87757
rtoes -22.7738
lfemur 19.2975 3.70501 -25.7744
ltibia 1.59028e-014
lfoot -12.3257 -2.53162
ltoes -4.34244
318
root 9.84156 16.4632 8.04825 7.91408 9.09832 5.41991
lowerback -8.35041 -5.00052 -7.58537
upperback -0.998806 -6.02962 1.67019
thorax 4.59437 -3.14566 5.21858
lowerneck -18.9588 -5.17976 -12.9426
upperneck 21.4597 -6.65917 12.9086
head 10.9566 -2.62409 5.88792
rclavicle 7.02952e-014 1.27222e-014
rhumerus -50.1324 4.9257 -82.7955
rradius 30.4501
rwrist -15.8193
rhand -29.8429 -21.3189
rfingers 7.12502
rthumb -3.16574 -51.2752
lclavicle 7.02952e-014 1.27222e-014
lhumerus -17.6967 -40.0478 95.3817
lradius 41.6359
lwrist 12.5633
lhand -5.49076 -23.543
lfingers 7.12502
lthumb 20.3218 5.41384
rfemur -42.974 3.90949 9.5351
rtibia 28.8385
rfoot -21.6823 -8.64675
rtoes -27.6789
lfemur 19.9321 3.69821 -25.485
ltibia 4.45278e-014
lfoot -11.8928 -3.51409
ltoes -4.27634
319
root 9.83113 16.4372 8.24171 7.8572 9.17318 5.71601
lowerback -8.29009 -4.98488 -7.71391
upperback -1.05237 -5.99346 1.4666
thorax 4.48927 -3.12208 5.08879
lowerneck -19.5088 -5.3391 -12.5455
upperneck 22.1253 -6.85297 12.3264
head 11.3004 -2.7277 5.58736
rclavicle 4.48011e-014 1.35174e-014
rhumerus -50.3497 5.02837 -83.0043
rradius 30.4702
rwrist -15.2242
rhand -28.5721 -24.1432
rfingers 7.12502
rthumb -1.93846 -54.1142
lclavicle 4.48011e-014 1.35174e-014
lhumerus -18.7185 -40.4145 95.9892
lradius 41.9616
lwrist 12.383
lhand -5.24591 -23.4967
lfingers 7.12502
lthumb 20.5571 5.4349
rfemur -42.935 3.01747 9.9169
rtibia 29.8792
rfoot -19.1833 -6.93302
rtoes -30.4191
lfemur 20.7272 3.79858 -25.4517
ltibia 4.77083e-014
lfoot -11.2958 -3.75144
ltoes -4.0751
320
root 9.82607 16.4211 8.44487 7.705 9.34093 6.04996
lowerback -8.27325 -5.0102 -7.89076
upperback -1.02334 -6.00432 1.3116
thorax 4.51328 -3.13008 5.02219
lowerneck -19.5107 -5.38947 -12.7483
upperneck 22.1057 -6.90293 12.4905
head 11.3163 -2.74884 5.67722
rclavicle -3.73715e-014 1.35174e-014
rhumerus -50.3964 4.79884 -82.7993
rradius 30.5968
rwrist -15.3766
rhand -27.3928 -26.7366
rfingers 7.12502
rthumb -0.799467 -56.7149
lclavicle -3.73715e-014 1.35174e-014
lhumerus -19.5796 -40.8251 96.6054
lradius 42.1354
lwrist 12.1402
lhand -4.9937 -23.3371
lfingers 7.12502
lthumb 20.7995 5.56804
rfemur -42.8098 1.94895 10.2181
rtibia 30.8306
rfoot -15.6134 -5.27741
rtoes -30.2195
lfemur 21.6958 3.81531 -25.4822
ltibia -2.22639e-014
lfoot -10.7449 -3.64437
ltoes -4.51139
321
root 9.79169 16.4043 8.64633 7.66374 9.32182 5.56265
lowerback -8.49663 -4.94059 -7.59504
upperback -0.978207 -5.92685 1.47826
thorax 4.66217 -3.09436 5.02548
lowerneck -19.1757 -5.31167 -13.1562
upperneck 21.5393 -6.80646 13.0761
head 11.0667 -2.68301 5.96909
rclavicle -9.83984e-015 -8.74653e-015
rhumerus -50.5051 4.80984 -82.7623
rradius 30.835
rwrist -16.0617
rhand -28.1028 -26.064
rfingers 7.12502
rthumb -1.48516 -56.0386
lclavicle -9.83984e-015 -8.74653e-015
lhumerus -20.0618 -41.0095 97.1006
lradius 42.0265
lwrist 11.4004
lhand -4.55118 -23.3899
lfingers 7.12502
lthumb 21.2246 5.46807
rfemur -43.1148 2.34671 10.8708
rtibia 31.6991
rfoot -12.4993 -4.88248
rtoes -29.3129
lfemur 22.3141 4.05263 -24.5318
ltibia -5.40694e-014
lfoot -10.1559 -4.00988
ltoes -7.61502
